<svg width="116" height="48" viewBox="0 0 116 48" fill="none" xmlns="http://www.w3.org/2000/svg">
<g clip-path="url(#clip0_5243_1307)">
<path d="M5.17691 0C15.9113 0 26.6457 0 37.376 0C37.4446 0.131442 37.3397 0.205377 37.2711 0.279313C36.7788 0.825617 36.3308 1.40478 35.9394 2.02913C35.4027 2.88761 35.0758 3.81591 34.9951 4.83458C34.9547 5.31927 35.1242 5.7136 35.4148 6.07917C35.7336 6.48582 36.0847 6.86371 36.351 7.31144C36.6456 7.81666 36.7304 8.34654 36.5932 8.90927C36.5124 9.23787 36.5649 9.19269 36.8312 9.19269C39.5068 9.19269 42.1823 9.19269 44.8619 9.19269C47.2751 9.19269 49.6883 9.19269 52.1055 9.19269C52.6019 9.19269 52.6261 9.22555 52.5616 9.72257C52.5131 10.0881 52.4566 10.4537 52.4082 10.8193C52.4001 10.8727 52.3679 10.9343 52.4203 10.9713C52.4728 11.0041 52.5212 10.9466 52.5656 10.9261C53.3525 10.5153 54.1758 10.2031 55.0393 9.99777C55.8545 9.80472 56.6777 9.70614 57.5131 9.6856C59.1434 9.64042 60.7415 9.87044 62.3234 10.2648C62.618 10.3387 62.618 10.3387 62.735 10.0471C63.8771 7.17178 65.4549 4.5717 67.4364 2.21808C67.9287 1.6307 68.4654 1.08029 68.9779 0.513443C69.1797 0.291636 69.4097 0.20127 69.7124 0.20127C77.174 0.205377 84.6396 0.205377 92.1012 0.205377C92.1416 0.205377 92.1819 0.20127 92.2223 0.205377C92.3192 0.213592 92.4442 0.188947 92.4927 0.299851C92.5371 0.406647 92.4442 0.492906 92.3797 0.570949C91.8631 1.18297 91.387 1.83197 90.9511 2.5056C89.6678 4.48133 88.8365 6.63369 88.5137 8.98732C88.433 9.57059 88.3765 10.1539 88.3846 10.7453C88.3846 10.8111 88.3644 10.8809 88.4088 10.9466C88.4854 10.9261 88.5379 10.8686 88.5904 10.8234C90.0835 9.54183 91.8107 8.79015 93.7316 8.46976C94.6638 8.31368 95.604 8.27671 96.5443 8.30957C96.8873 8.32189 97.2263 8.35475 97.5693 8.38761C97.8397 8.41226 97.9002 8.50262 97.8034 8.76551C97.533 9.48844 97.2949 10.2196 97.1133 10.9754C96.8712 11.994 96.7582 13.025 96.8268 14.0684C96.9115 15.3746 97.2989 16.5904 97.9688 17.7076C97.9971 17.7528 98.0132 17.8227 98.0738 17.8227C98.1464 17.8227 98.1545 17.7405 98.1746 17.6871C98.8405 16.2002 99.2965 14.6557 99.4942 13.0332C99.5871 12.2569 99.6355 11.4806 99.6032 10.7002C99.5749 10.0224 99.5063 9.34878 99.3974 8.68336C99.3409 8.34654 99.4095 8.26439 99.7525 8.26439C103.869 8.26439 107.985 8.26439 112.101 8.26439C112.412 8.26439 112.456 8.29725 112.488 8.6012C112.561 9.26663 112.606 9.93616 112.678 10.6016C112.791 11.6572 112.832 12.717 112.803 13.7767C112.767 15.1815 112.464 16.5247 111.879 17.8021C111.359 18.9358 110.624 19.9175 109.813 20.8458C108.647 22.1808 107.432 23.4705 106.173 24.711C105.221 25.6475 104.256 26.5676 103.275 27.4713C102.505 28.1819 101.734 28.8966 100.959 29.6072C100.624 29.9153 100.285 30.2151 99.9543 30.5273C99.349 31.1024 98.78 31.7185 98.4733 32.5236C98.4208 32.6591 98.3885 32.7988 98.3683 32.9384C98.2957 33.4806 98.6387 33.8955 99.2481 34.0064C99.8211 34.1091 100.39 34.0351 100.947 33.8955C102.323 33.5587 103.651 33.0699 104.97 32.5605C107.658 31.5172 110.221 30.1987 112.779 28.872C113.723 28.3832 114.668 27.882 115.608 27.3809C115.713 27.3275 115.83 27.2248 115.943 27.3111C116.064 27.4056 115.991 27.5534 115.963 27.6767C115.459 29.8331 114.986 31.9978 114.373 34.1255C113.824 36.0314 113.183 37.9045 112.287 39.6789C111.488 41.2644 110.511 42.7267 109.22 43.9508C108.106 45.0105 106.835 45.8156 105.402 46.3578C104.216 46.8055 102.993 47.0848 101.73 47.167C101.221 47.1998 100.713 47.2204 100.2 47.2122C100.12 47.2122 100.035 47.2122 99.9543 47.2122C99.6839 47.2122 99.4135 47.2122 99.1472 47.2122C99.0786 47.2122 99.0059 47.2122 98.9373 47.2122C97.2142 47.2409 95.5516 46.937 93.9697 46.2305C93.0899 45.8361 92.2869 45.3186 91.5726 44.6573C90.2288 43.4127 89.3975 41.86 88.889 40.1061C88.7034 39.4612 88.5581 38.8081 88.4693 38.1427C88.433 37.8757 88.4209 37.8675 88.1505 37.8675C84.0948 37.8675 80.0392 37.8675 75.9835 37.8675C75.8745 37.8675 75.7696 37.8757 75.6607 37.8511C75.5436 37.8223 75.5073 37.7525 75.5517 37.6375C75.5678 37.6005 75.584 37.5635 75.6082 37.5307C76.2942 36.4915 76.7422 35.3455 77.1013 34.1543C77.4726 32.922 77.7268 31.6651 77.8681 30.3835C77.9609 29.5251 78.0134 28.6666 77.977 27.804C77.9326 26.7401 77.8035 25.6886 77.3677 24.7028C77.0771 24.0415 76.6615 23.4911 75.9875 23.1912C75.7131 23.068 75.4266 23.0105 75.128 23.0064C74.9141 23.0064 74.902 23.0187 74.9545 23.2323C75.1522 24.0579 75.3096 24.8917 75.4145 25.7338C75.6526 27.6767 75.6768 29.6113 75.1562 31.5172C74.7325 33.0699 73.9859 34.4295 72.8681 35.5878C71.6252 36.8776 70.1361 37.7443 68.5017 38.3891C66.9723 38.993 65.3823 39.3667 63.76 39.6132C63.7116 39.6214 63.6672 39.6296 63.6188 39.6296C63.4614 39.6214 63.413 39.5639 63.4372 39.4078C63.4574 39.2928 63.4937 39.1819 63.526 39.071C63.8771 37.8757 64.1797 36.6722 64.321 35.4317C64.4259 34.528 64.4461 33.6203 64.3048 32.7166C64.3008 32.6838 64.3008 32.6468 64.2645 32.6057C64.1353 32.7084 64.0102 32.8152 63.8892 32.9302C62.501 34.2693 60.9917 35.4399 59.2927 36.3436C57.9005 37.0871 56.4235 37.5841 54.8497 37.7484C53.1507 37.925 51.5123 37.6621 49.9224 37.046C48.1629 36.3641 46.6334 35.3126 45.2129 34.0803C44.9103 33.8174 44.6157 33.5505 44.3292 33.267C44.1799 33.1192 44.1516 33.1192 44.0104 33.2835C43.4938 33.8708 42.949 34.4295 42.3478 34.9265C40.8627 36.1505 39.2081 37.0337 37.3397 37.4773C37.142 37.5224 36.9442 37.5512 36.7425 37.5512C31.2421 37.5512 25.7417 37.5512 20.2373 37.5512C19.7934 37.5512 19.7531 37.4855 19.8782 37.0583C20.0719 36.4052 20.3463 35.7891 20.6368 35.1811C21.0929 34.22 21.6013 33.2835 22.0089 32.2976C22.4125 31.3159 22.7272 30.3055 22.7999 29.2334C22.8685 28.2517 22.7272 27.2947 22.3721 26.3746C22.2874 26.1569 22.2026 25.9433 22.0977 25.7338C22.0331 25.6106 21.9524 25.5531 21.8112 25.5531C20.2777 25.5531 18.7442 25.5572 17.2107 25.5531C17.0453 25.5531 17.013 25.6229 17.0493 25.7708C17.239 26.5635 17.2672 27.3686 17.2309 28.1778C17.1865 29.18 16.9282 30.133 16.5045 31.0407C15.8992 32.3469 14.9831 33.4067 13.9016 34.3186C12.4085 35.5796 10.7015 36.4545 8.89762 37.1404C6.83549 37.925 4.70072 38.4138 2.52156 38.7013C2.17451 38.7465 1.82746 38.7958 1.4804 38.8204C1.40373 38.8245 1.30688 38.8533 1.25845 38.767C1.21003 38.6767 1.27056 38.5945 1.31898 38.5206C1.6055 38.1139 1.89202 37.7073 2.17451 37.3006C3.16724 35.8507 4.10347 34.3637 4.87828 32.7823C5.41097 31.6897 5.85487 30.5602 6.08086 29.3525C6.2907 28.2353 6.26649 27.1386 5.83066 26.0706C5.56835 25.4339 5.15269 24.9123 4.71283 24.3988C3.57482 23.0639 2.80001 21.5441 2.52963 19.782C2.36418 18.6811 2.42471 17.5885 2.61034 16.4959C2.88879 14.8611 3.44568 13.3126 4.07522 11.7928C4.26085 11.345 4.26489 11.345 3.78063 11.345C2.6628 11.345 1.54901 11.345 0.431178 11.345C0.358539 11.345 0.281865 11.3492 0.209227 11.3409C-0.000618621 11.3245 -0.028867 11.2916 0.00341685 11.0739C0.108339 10.6673 0.326256 10.3099 0.499781 9.93205C1.23424 8.326 1.9808 6.72406 2.72333 5.12211C3.20759 4.07469 3.68781 3.03137 4.17611 1.98395C4.44649 1.40478 4.71686 0.82151 4.9832 0.238238C5.03163 0.135549 5.07602 0.045183 5.17691 0Z" fill="#FE0000"/>
<path d="M99.1109 47.1953C99.3933 47.1953 99.6798 47.1953 99.9622 47.1953C99.9784 47.2035 99.9824 47.2117 99.9743 47.22C99.9703 47.2282 99.9622 47.2323 99.9582 47.2323C99.6757 47.2323 99.3933 47.2323 99.1109 47.2323C99.0947 47.2241 99.0907 47.22 99.0947 47.2117C99.1028 47.1994 99.1068 47.1953 99.1109 47.1953Z" fill="#FEADAD"/>
<path d="M99.9624 47.2282C99.9624 47.2159 99.9624 47.2035 99.9624 47.1953C100.043 47.1953 100.124 47.1953 100.205 47.1953C100.205 47.2076 100.205 47.22 100.205 47.2282C100.124 47.2282 100.043 47.2282 99.9624 47.2282Z" fill="#FED5D5"/>
<path d="M99.111 47.1953C99.111 47.2076 99.111 47.22 99.111 47.2282C99.0424 47.2282 98.9778 47.2282 98.9092 47.2282C98.9092 47.2159 98.9092 47.2076 98.9092 47.1953C98.9778 47.1953 99.0464 47.1953 99.111 47.1953Z" fill="#FED8D8"/>
<path d="M110.754 33.7308C110.649 34.8645 110.391 35.9119 109.951 36.9018C108.72 39.6868 106.625 41.531 103.881 42.6688C102.868 43.0878 101.815 43.363 100.726 43.4739C98.5464 43.6957 96.452 43.4164 94.5715 42.1924C93.1268 41.2517 92.0816 39.9661 91.557 38.282C91.2019 37.1442 91.3875 36.0351 91.8233 34.9549C92.1906 34.0389 92.7111 33.2009 93.147 32.3219C93.4012 31.8126 93.6393 31.295 93.7442 30.7282C93.9823 29.4179 93.7281 28.2103 92.9734 27.1177C92.5336 26.481 91.9969 25.9388 91.4682 25.3802C90.6248 24.4929 89.85 23.5564 89.3375 22.4268C88.8895 21.4451 88.6111 20.4182 88.49 19.3421C88.3569 18.1386 88.4456 16.9597 88.8815 15.826C89.4747 14.2939 90.5764 13.2711 92.0332 12.6139C92.4246 12.4373 92.8282 12.2935 93.2398 12.1826C93.2963 12.1662 93.3528 12.158 93.4294 12.1415C93.2882 12.6139 93.1833 13.0657 93.1308 13.5299C93.0461 14.3226 93.1308 15.0949 93.3205 15.863C93.6272 17.1117 94.1962 18.2495 94.7692 19.3873C95.3342 20.5127 95.9274 21.6259 96.3552 22.8129C96.6538 23.6427 96.8838 24.4929 96.9363 25.3843C96.9403 25.4377 96.9524 25.4911 96.9645 25.5363C97.0251 25.5609 97.0493 25.5157 97.0775 25.4911C99.1558 23.577 100.899 21.4 102.041 18.767C102.61 17.4485 102.994 16.0766 103.199 14.6513C103.353 13.5833 103.373 12.5153 103.349 11.4391C103.345 11.2666 103.397 11.2461 103.546 11.2461C105.282 11.2502 107.017 11.2502 108.752 11.2461C108.889 11.2461 108.954 11.2625 108.966 11.4268C109.014 12.2196 109.031 13.0123 108.958 13.8051C108.797 15.6453 108.272 17.3704 107.388 18.9847C106.404 20.7879 105.08 22.3159 103.611 23.7207C102.203 25.0639 100.673 26.2592 99.176 27.4956C98.1671 28.3294 97.1623 29.1632 96.2987 30.1572C95.6611 30.8925 95.088 31.6811 94.9105 32.6711C94.6966 33.8335 94.7813 34.959 95.5561 35.9242C96.0364 36.5198 96.6901 36.8443 97.4044 37.0456C98.4415 37.3413 99.4988 37.3537 100.56 37.2551C103.639 36.9758 106.521 36.0146 109.273 34.6221C109.773 34.3675 110.253 34.0758 110.754 33.7308Z" fill="#FDFDFD"/>
<path d="M7.51397 34.158C7.82066 33.7226 8.11525 33.2913 8.36949 32.8354C8.90621 31.8742 9.27747 30.8556 9.41064 29.7547C9.55592 28.5389 9.39046 27.3518 9.03131 26.1853C8.63179 24.8914 8.03454 23.6838 7.46554 22.4638C7.0055 21.478 6.54949 20.4881 6.29122 19.4201C6.11366 18.6849 6.08137 17.9414 6.1298 17.1856C6.17419 16.4915 6.23068 15.8014 6.33964 15.1113C6.57774 13.5792 7.13867 12.1744 7.92962 10.8559C8.49459 9.91117 9.12816 9.01572 9.74155 8.10796C9.77383 8.05866 9.81015 8.00937 9.85858 7.93544C8.38967 7.93544 6.93689 7.93544 5.48816 7.93544C5.4478 7.84918 5.49623 7.79989 5.52044 7.74649C6.21454 6.19795 6.91672 4.6494 7.60678 3.09675C7.66731 2.9612 7.73995 2.91602 7.88927 2.91602C13.3816 2.92012 18.8779 2.92012 24.3702 2.91602C24.5316 2.91602 24.5881 2.92012 24.5195 3.11729C23.9908 4.62476 23.4743 6.13633 22.9618 7.64791C22.9133 7.78757 22.8447 7.82864 22.7035 7.82864C20.2217 7.84507 17.7399 7.86561 15.258 7.88615C14.2694 7.89436 13.2807 7.91079 12.292 7.92312C12.1951 7.92312 12.1306 7.95598 12.0741 8.03402C11.3557 9.02394 10.8715 10.1165 10.702 11.3406C10.3146 14.1502 11.1499 16.6229 12.7561 18.8656C13.0668 19.2969 13.4219 19.6912 13.8335 20.0404C14.3702 19.2969 14.9029 18.5534 15.4356 17.8141C15.4598 17.7812 15.4921 17.7525 15.5082 17.7155C15.706 17.2678 16.053 17.1939 16.5131 17.198C18.6438 17.2226 20.7745 17.2103 22.9093 17.2103C22.982 17.2103 23.0546 17.2103 23.1272 17.2103C23.1514 17.2883 23.103 17.3376 23.0788 17.3869C22.3847 18.8245 21.6866 20.2622 20.9965 21.6998C20.936 21.8231 20.8674 21.86 20.7342 21.86C18.7366 21.8559 16.7391 21.86 14.7415 21.8518C14.5518 21.8518 14.5276 21.897 14.5559 22.0818C14.6447 22.661 14.7012 23.2443 14.7375 23.8316C14.7859 24.5751 14.794 25.3227 14.7375 26.0662C14.568 28.3746 13.8255 30.4119 12.0458 31.9523C11.0127 32.8477 9.81419 33.4392 8.53898 33.8787C8.26053 33.9732 7.97805 34.0553 7.6996 34.1457C7.64714 34.1621 7.59064 34.1745 7.51397 34.158Z" fill="#FDFDFD"/>
<path d="M63.1716 26.7026C63.1191 27.1503 63.0021 27.5693 62.8608 27.9841C62.0013 30.4527 60.3185 32.1409 58.0142 33.2212C56.7228 33.825 55.3548 34.1372 53.9383 34.1536C51.9407 34.1783 50.0884 33.6895 48.4944 32.4161C47.1304 31.3235 46.2386 29.927 45.9278 28.1607C45.609 26.3329 45.8229 24.5502 46.3233 22.7881C46.965 20.5207 48.0465 18.4834 49.5477 16.6925C51.2426 14.6675 53.3532 13.2956 55.9198 12.7164C57.2555 12.4166 58.5953 12.3837 59.8988 12.8643C61.0166 13.275 61.8358 14.0103 62.1667 15.2138C62.4048 16.0846 62.2999 16.9431 62.0497 17.7892C61.5049 19.613 60.4153 21.0383 58.9303 22.1679C57.3887 23.3385 55.6453 24.0779 53.8173 24.6406C52.4694 25.0554 51.0973 25.3676 49.7051 25.5894C49.5679 25.61 49.5275 25.651 49.588 25.803C49.9916 26.8217 50.7382 27.4953 51.6784 27.9718C52.5663 28.4236 53.5186 28.6413 54.5033 28.7563C55.3064 28.8467 56.1135 28.8631 56.9165 28.7851C59.1361 28.5756 61.2345 27.9841 63.1191 26.7231C63.1312 26.7149 63.1433 26.7108 63.1716 26.7026Z" fill="#FDFDFD"/>
<path d="M68.2237 34.38C68.3892 33.8953 68.5425 33.4476 68.6676 32.9916C68.93 32.0182 69.0712 31.0282 69.0066 30.0178C68.9259 28.7814 68.5143 27.6477 67.8888 26.588C67.2916 25.5652 66.5652 24.6369 65.8953 23.6634C65.0761 22.4722 64.3941 21.2194 64.0712 19.79C63.8453 18.796 63.8009 17.7937 63.8816 16.7792C64.0269 14.9431 64.4344 13.1727 65.1164 11.4681C65.8065 9.75525 66.7629 8.2026 67.8606 6.7362C68.6757 5.6477 69.5514 4.6126 70.4231 3.57339C70.4876 3.49535 70.5562 3.4707 70.6491 3.4707C73.9501 3.4707 77.2551 3.4707 80.5562 3.4707C80.6974 3.4707 80.7337 3.49535 80.6651 3.63911C79.9549 5.16301 79.2487 6.6828 78.5505 8.21081C78.486 8.34636 78.3972 8.33404 78.2923 8.33404C75.2374 8.33404 72.1866 8.33815 69.1317 8.32582C68.938 8.32582 68.8694 8.39565 68.8089 8.55585C68.3448 9.79222 68.0018 11.0573 67.8444 12.3718C67.6911 13.6492 67.7032 14.9184 68.1188 16.1548C68.3771 16.9188 68.7887 17.576 69.4304 18.073C69.5393 18.1593 69.6281 18.1716 69.7572 18.1305C70.4876 17.8923 70.9194 17.3583 71.1858 16.66C71.4118 16.0685 71.5127 15.4442 71.67 14.8363C71.7709 14.4543 71.7669 14.4543 72.1462 14.4543C73.9703 14.4543 75.7903 14.4543 77.6143 14.4502C77.7676 14.4502 77.8201 14.4625 77.7676 14.6473C77.3923 15.9782 77.0332 17.309 76.674 18.644C76.6377 18.7754 76.5772 18.8042 76.4521 18.8042C74.6765 18.8001 72.9009 18.8042 71.1253 18.796C70.9558 18.796 70.9033 18.8535 70.8629 19.0054C70.5078 20.4225 70.6813 21.8027 71.1253 23.1664C71.4441 24.144 71.8557 25.0887 72.1301 26.0827C72.7273 28.2351 72.4852 30.2642 71.21 32.1167C70.4755 33.1929 69.4626 33.9117 68.2237 34.38Z" fill="#FDFDFD"/>
<path d="M90.3339 29.4548C90.0554 30.0134 89.7931 30.5433 89.5308 31.0732C89.0385 32.0672 88.5421 33.0612 88.0538 34.0593C87.9893 34.1908 87.9166 34.2442 87.7633 34.2442C85.4227 34.2401 83.0821 34.2401 80.7416 34.2442C80.5842 34.2442 80.5357 34.2236 80.5963 34.047C81.1007 32.593 81.3267 31.0896 81.2742 29.5493C81.2339 28.354 81.0361 27.1792 80.7779 26.0168C80.4631 24.5997 80.0959 23.1949 79.8336 21.7696C79.5471 20.2128 79.4058 18.6396 79.5148 17.0623C79.6843 14.5896 80.1241 12.1702 81.0805 9.87C81.8029 8.13251 82.8198 6.6045 84.208 5.33938C84.9949 4.62466 85.8585 4.02496 86.8391 3.51562C86.6535 3.87298 86.484 4.18516 86.3266 4.50144C85.6164 5.91854 85.0797 7.39726 84.8053 8.96634C84.6519 9.83714 84.5954 10.712 84.6116 11.5952C84.6439 13.2259 84.9465 14.8155 85.2653 16.4051C85.4994 17.584 85.7294 18.7669 85.8747 19.9622C86.0361 21.3095 86.0684 22.665 85.9554 24.0164C85.802 25.8032 85.3985 27.5407 84.8012 29.2289C84.7205 29.4589 84.7205 29.4589 84.9546 29.4589C86.6616 29.4589 88.3686 29.4589 90.0796 29.4589C90.1442 29.4548 90.2168 29.4548 90.3339 29.4548Z" fill="#FDFDFD"/>
<path d="M36.7911 34.9586C37.0736 34.4616 37.3117 33.9769 37.4973 33.4635C38.0502 31.9149 37.8726 30.4321 37.1462 28.9863C36.6418 27.9881 36.0002 27.0845 35.4069 26.1438C34.8299 25.2237 34.3133 24.2749 34.0268 23.2152C33.7605 22.2293 33.7403 21.2394 33.9098 20.2372C34.1317 18.9392 34.4828 17.6864 35.0518 16.4993C35.637 15.2876 36.4199 14.2237 37.3319 13.2502C37.5175 13.0531 37.6749 12.782 37.9049 12.6875C38.139 12.5889 38.4457 12.6588 38.7201 12.6588C41.8274 12.6588 44.9347 12.6588 48.038 12.6547C48.2075 12.6547 48.2721 12.7039 48.3084 12.8641C48.4416 13.4926 48.2882 14.0635 47.9977 14.6098C47.7111 15.152 47.352 15.6449 47.0211 16.1584C46.6296 16.7704 46.2664 17.3907 46.1091 18.1177C46.0243 18.5243 46.0082 18.931 46.0727 19.3376C46.0929 19.4567 46.0566 19.4732 45.9517 19.4732C44.4666 19.4691 42.9816 19.4691 41.4925 19.4732C41.3351 19.4732 41.3593 19.3828 41.3593 19.2924C41.3593 17.8343 41.3553 16.3761 41.3633 14.9179C41.3633 14.7002 41.2988 14.6632 41.1051 14.6674C40.4715 14.6797 39.8419 14.6715 39.2084 14.6715C39.1236 14.6715 39.051 14.6591 39.0026 14.7783C38.6111 15.76 38.4215 16.7745 38.4981 17.8343C38.5708 18.8488 38.8815 19.8018 39.3214 20.7137C39.8419 21.7981 40.5078 22.7962 41.1051 23.8354C41.4965 24.5172 41.8799 25.2032 42.0816 25.9754C42.2915 26.7805 42.2874 27.5938 42.1704 28.4112C41.9646 29.8653 41.44 31.1879 40.6087 32.3832C39.8581 33.4635 38.9259 34.3261 37.6749 34.7697C37.4126 34.86 37.1301 34.9422 36.7911 34.9586Z" fill="#FDFDFD"/>
<path d="M30.2496 12.9512C29.9227 13.6823 29.6523 14.3683 29.4505 15.0871C29.2205 15.9086 29.1156 16.7424 29.1882 17.5927C29.2488 18.2951 29.4707 18.9564 29.7693 19.5931C30.0881 20.2749 30.4796 20.9198 30.7096 21.6386C31.2019 23.1995 30.9759 24.6905 30.185 26.0994C29.9469 26.5266 29.6725 26.9292 29.4183 27.344C29.1681 27.7507 28.9986 28.1902 28.9138 28.6625C28.8815 28.8268 28.9017 28.9008 29.1035 28.9008C30.3061 28.8885 31.5127 28.8967 32.7152 28.8926C32.8726 28.8926 32.921 28.9049 32.8686 29.0938C32.4408 30.5972 32.0211 32.1047 31.6055 33.6121C31.5692 33.7436 31.5127 33.7888 31.3714 33.7888C29.3254 33.7847 27.2835 33.7847 25.2375 33.7888C25.1003 33.7888 25.0479 33.7764 25.1044 33.6121C25.4393 32.6921 25.637 31.7432 25.6572 30.7656C25.6814 29.6976 25.4756 28.6667 25.1326 27.6644C24.7977 26.6786 24.3659 25.7256 24.039 24.7357C23.7162 23.7622 23.5467 22.7682 23.6274 21.7413C23.7121 20.661 24.0672 19.6588 24.5838 18.7182C25.4232 17.1861 26.5329 15.8799 27.8283 14.7297C28.5668 14.0807 29.3577 13.4934 30.2496 12.9512Z" fill="#FDFDFD"/>
<path d="M30.9476 3.1875C30.7862 3.58182 30.649 3.93918 30.5885 4.32529C30.4957 4.90446 30.5885 5.44665 30.8266 5.97652C31.0041 6.37496 31.2261 6.74874 31.4521 7.11842C32.4327 8.71626 31.8395 10.5113 30.3262 11.419C29.5231 11.8996 28.6474 12.1748 27.7435 12.3638C27.4166 12.4336 27.0857 12.4829 26.7386 12.5486C26.7629 12.4459 26.8315 12.4131 26.8839 12.3638C27.2068 12.0516 27.5175 11.7353 27.7556 11.3492C28.1672 10.6756 28.0744 10.158 27.4489 9.68564C27.1301 9.4474 26.7951 9.2297 26.4844 8.98736C26.1656 8.7409 25.8952 8.44927 25.8266 8.02208C25.7822 7.73866 25.8468 7.47989 25.9598 7.22933C26.2867 6.49408 26.7951 5.89848 27.3722 5.36039C28.3932 4.3869 29.6159 3.74202 30.9476 3.1875Z" fill="#FDFDFD"/>
<path d="M54.7286 16.9601C55.0797 16.9519 55.4106 16.993 55.7375 17.0792C56.6132 17.3175 57.0086 17.9993 56.8028 18.8989C56.6293 19.6711 56.2217 20.316 55.7133 20.8911C54.7649 21.9632 53.6229 22.7272 52.2387 23.0927C51.5689 23.2694 50.8949 23.3145 50.2049 23.2119C50.0515 23.1872 50.0435 23.1338 50.0435 23.0065C50.0677 21.8646 50.3582 20.7925 50.8707 19.782C51.2743 18.9852 51.7868 18.2745 52.4889 17.72C53.1548 17.1984 53.9013 16.9396 54.7286 16.9601Z" fill="#FE0000"/>
</g>
<defs>
<clipPath id="clip0_5243_1307">
<rect width="116" height="47.2286" fill="white"/>
</clipPath>
</defs>
</svg>
